<?xml version="1.0" encoding="UTF-8" standalone="no"?>
<svg
   xmlns:dc="http://purl.org/dc/elements/1.1/"
   xmlns:cc="http://creativecommons.org/ns#"
   xmlns:rdf="http://www.w3.org/1999/02/22-rdf-syntax-ns#"
   xmlns:svg="http://www.w3.org/2000/svg"
   xmlns="http://www.w3.org/2000/svg"
   viewBox="0 0 609.45331 623.62665"
   height="623.62665"
   width="609.45331"
   xml:space="preserve"
   id="svg2"
   version="1.1"><metadata
     id="metadata8"><rdf:RDF><cc:Work
         rdf:about=""><dc:format>image/svg+xml</dc:format><dc:type
           rdf:resource="http://purl.org/dc/dcmitype/StillImage" /></cc:Work></rdf:RDF></metadata><defs
     id="defs6" /><g
     transform="matrix(1.3333333,0,0,-1.3333333,0,623.62667)"
     id="g10"><g
       transform="scale(0.1)"
       id="g12"><path
         id="path14"
         style="fill:#ffffff;fill-opacity:1;fill-rule:nonzero;stroke:none"
         d="m 933.895,3864.43 c 22.566,23.22 46.097,44.81 63.73,60.08 -21.703,-19.51 -42.84,-39.66 -63.73,-60.08 z M 516.754,3290.94 c -119.16,-239.75 -192.078,-503.19 -213.481,-771.79 -21.668,-268.62 6.582,-542.09 86.008,-800.72 79.508,-258.57 209.285,-501.93 379.758,-712.85 l -35.871,45.02 -17.945,22.54 -16.797,23.44 -37.418,52.5 c -12.371,17.6 -23.395,36.1 -35.203,54.04 -61.508,96.51 -116.91,197.24 -161.617,302.71 -45.047,105.27 -81.817,213.99 -110.083,324.88 -54.632,222.14 -74.89,453.05 -56.73,680.89 3.191,55.45 11.387,110.33 18.672,165.27 10.082,54.48 18.937,109.21 32.988,162.8 25.824,107.59 59.328,213.35 102.199,315.17 l 13.266,32.76 14.801,31.95 c 9.914,21.22 19.797,42.37 29.66,63.48 22.262,40.96 42.129,82.97 66.777,122.47 45.785,80.99 99.664,157.46 156.489,234.58 20.914,25.94 43.265,56.81 67.191,83.65 19.363,21.47 37.555,41.85 53.836,57.65 C 719.258,3635.15 605.34,3469.64 516.754,3290.94 Z M 1126.72,603.121 c 204.95,-151.601 436.55,-266.32 680.4,-337.562 -121.45,33.39 -337.68,107.371 -568.88,256.871 -115.47,74.172 -234.08,166.461 -345.369,275.218 -111.742,108.293 -214.207,234.502 -302.09,369.602 -87.859,135.19 -160.195,279.96 -214.027,424.53 -54.043,144.55 -89.5,288.71 -109.496,421.89 -20.231,133.25 -25.028,255.29 -24.11,357.74 1.985,51.22 2.528,97.7 7.25,138.34 3.602,40.7 6.696,75.82 11.786,104.31 C 200.605,2109.09 321.918,1582.04 604.313,1156.55 744.605,943.609 922.273,755.371 1126.72,603.121 Z M 4570.7,2415.07 c -0.27,19.14 -0.51,35.98 -0.72,51.43 -0.64,15.39 -1.22,29.37 -1.77,42.81 -1.24,26.82 -0.5,51.58 -3.44,80.6 -3.37,33.57 -5.81,66.12 -9.35,98.41 -4.55,32.2 -9.08,64.26 -13.73,97.18 -21.61,129.14 -64.21,270.36 -114.41,396.99 -40.25,100.98 -88.16,200.02 -143.68,295.74 -56.64,95.03 -120.78,186.47 -191.73,273.15 -70.51,87.11 -150.16,167.25 -234.42,242.28 -84.46,74.87 -174.85,143.77 -270.91,203.91 -330.14,209.72 -719.57,331.23 -1115.62,335.56 -14.53,0.38 -27.45,0.71 -38.89,1.01 -11.45,-0.21 -21.41,-0.41 -30.01,-0.57 -17.2,-0.25 -28.96,-0.2 -36.26,0.18 -14.58,0.77 -11.3,2.91 2.24,6.87 13.17,3.85 0.35,5.18 -38.38,6.53 -58.88,-0.44 -124.99,-0.94 -156.17,-1.17 -13.14,0.34 -29.33,-0.38 -48.74,-1.79 -9.73,-0.82 -20.23,-1.71 -31.56,-2.67 -11.27,-1.6 -23.36,-3.32 -36.29,-5.17 -142.91,-18.85 -302.9,-62.11 -443.18,-114.08 -13.85,-5.07 -27.83,-10.19 -41.97,-15.37 -14.1,-5.32 -27.95,-11.72 -42.21,-17.72 -28.24,-12.63 -58.08,-24.08 -87.29,-39.77 -111.64,-54.4 -218.37,-118.87 -318.84,-191.89 -100.6,-72.84 -195.268,-153.88 -282.796,-242.1 -255.066,-258.07 -446.859,-579.18 -550.422,-927.74 -38.332,-128.46 -66.507,-260.09 -82.265,-409.11 3.191,48.77 8.601,89.98 14.429,127.6 25.977,162.58 69.438,320.9 124.465,469.06 42.25,113.55 96.629,226.89 161.621,333.97 93.055,154.5 205.297,297.2 331.625,425.82 127.203,127.86 269.953,240.03 423.313,334.89 154.07,93.8 319.5,168.72 491.25,223.73 172,54.41 350.78,86.59 530.6,98.36 124.57,7.43 250.25,6.54 375.02,-5.21 46.54,-5.69 90.43,-9.89 82.45,-6.31 -20.52,8.88 -19.42,16.26 -88.18,29.86 -29.9,4.79 -64.6,9.59 -102.01,14.38 -37.48,3.29 -77.71,5.82 -118.57,8.63 -40.94,0.69 -82.41,1.39 -122.41,2.06 -40,-0.98 -78.51,-1.91 -113.61,-2.77 -8.58,-0.54 -28.66,-3.08 -43.37,-4.94 -28.17,-3.75 -54.44,-6.24 -79.35,-9.74 -24.86,-3.79 -48.55,-7.4 -71.86,-10.95 -11.67,-1.73 -23.24,-3.45 -34.82,-5.17 -11.48,-2.25 -22.97,-4.5 -34.56,-6.78 -23.21,-4.69 -46.83,-9.46 -71.66,-14.47 45.75,13.34 101.69,27.81 155.16,36.69 137.47,26.9 285.04,37.41 419.89,41.4 64.14,0.37 104.3,1.53 112.88,5.87 9.13,4.6 -44.74,7.56 -98.02,10.72 -24.4,2.02 -49.37,1.13 -74.47,1.61 -25.1,-0.04 -50.37,0.78 -75.3,-0.02 -24.92,-1.03 -49.55,-2.04 -73.46,-3.03 -11.96,-0.45 -23.75,-0.9 -35.3,-1.34 -11.5,-0.94 -22.78,-1.86 -33.78,-2.76 -122.17,-7.46 -263.55,-32.41 -402.17,-72.12 -171,-47.43 -338.03,-118.33 -496.09,-207.54 -79.56,-43.82 -155.26,-94.87 -229.55,-148 -36.308,-27.68 -72.773,-55.36 -107.968,-84.59 -34.453,-30.1 -70.23,-58.82 -102.848,-91.04 C 603.293,3862.7 424.176,3617.01 297.438,3346.09 170.469,3075.34 96.1914,2779.52 80.4258,2480.8 65.4727,2189.77 103.832,1895.41 195.578,1618.15 286.941,1340.82 431.012,1081.28 616.93,856.609 c 26.062,-29.8 53.425,-61.418 79.332,-91.968 -24.168,22.929 -50.403,52.879 -78.078,84.089 -26.582,32.129 -53.27,66.692 -78.586,98.93 C 425.23,1100.34 328.07,1265.89 252.719,1442.24 178.422,1618.96 124.715,1805.68 95.375,1998.51 67,2194.67 61.9219,2394.02 80.3867,2591.68 c 19.9653,197.51 64.3323,392.81 131.7583,579.59 110.742,301.92 275.593,572.99 484.054,803.3 24.11,25.6 51.192,56.59 67.422,73.32 13.203,14.26 27.645,29.3 43.027,44.92 7.747,7.78 15.668,15.73 23.743,23.83 8.504,7.67 17.164,15.49 25.957,23.41 17.785,15.69 36.09,31.83 54.672,48.21 18.98,15.92 39.007,31.16 58.695,46.83 158.225,125 334.215,226.91 518.885,307.87 63.57,26.77 127.59,52.55 193.26,73.86 21.56,7.25 41.83,14.81 45.47,16.99 4.2,3.03 -9.84,0.4 -33.13,-6.89 -17.07,-5.51 -38.95,-12.58 -58.42,-18.87 -157.57,-52.95 -312.89,-125 -458.4,-215.09 C 952.008,4254.88 751,4078.25 582.223,3875.02 414.953,3670.51 280.492,3438.82 188.215,3190.79 145.371,3074 111.332,2954.15 86.1445,2832.49 62.1289,2710.57 47.8594,2587.03 41.8438,2463.25 36.4727,2339.41 41.875,2215.41 54.7617,2092.18 68.0391,1968.9 92.918,1847.04 125.023,1727.35 214.191,1402.99 373.152,1100.75 586.066,841.969 769.563,620.25 990.727,436.551 1238.04,294.719 1398.03,203.641 1566.43,131.441 1741.6,81.1094 c 26.24,-7.168 52.61,-14.3789 78.95,-21.5781 26.23,-7.6094 53.17,-12.293 79.52,-18.4415 52.67,-12.6289 105.57,-19.9687 156.09,-27.8789 -22.84,8.8282 -122.57,27.1407 -143.78,38.5782 14.93,-2.8985 27.42,-4.9375 40.71,-7.9297 25.95,-4.5508 51.78,-9.0781 77.52,-13.5899 l 38.57,-6.5507 c 12.88,-1.8985 25.82,-3.1875 38.69,-4.7891 25.78,-3 51.48,-5.9883 77.14,-8.98048 25.72,-2.28906 51.48,-3.55859 77.16,-5.32813 51.34,-4.410152 102.78,-3.47265 154.21,-4.519527 25.73,-0.570313 51.47,1.410157 77.27,1.999997 25.77,1.3086 51.66,0.96875 77.5,3.64844 196.95,14.1016 389.41,51.3906 571.8,112.582 182.09,61.879 355.19,144.027 514.13,246.578 37.4,25.512 75.49,49.051 110.87,76.61 17.95,13.378 35.92,26.781 53.97,40.222 17.78,13.778 35,28.438 52.7,42.719 70.96,57 139.49,120.898 211.99,191.199 14.91,15.309 31.85,34.371 33.01,37.18 2.61,6.859 19.02,25.781 36.83,48.191 17.5,22.688 37.41,47.957 49.66,65.211 65.75,101.477 1.45,23.27 -128.04,-109.89 -103.83,-104.493 -214.79,-194.18 -341.15,-284.86 -18.6,-14.222 -44.14,-30.183 -49.58,-31.183 -3.3,-0.661 3.68,5.101 17.39,14.941 116.95,87.59 198.79,170.641 254.45,234.359 17.09,21.563 10.18,14.743 -27.81,-18.339 -35.87,-30.77 -69.04,-59.438 -105.09,-85.438 -17.85,-13.191 -35.41,-27.023 -54.29,-40.121 -19.05,-12.871 -38.64,-26.09 -59.18,-39.973 65.47,48.192 116.29,90.59 167.84,136.133 42.28,38.277 64.12,57.82 74.12,69.801 10.36,11.566 10.26,14.019 8.82,17.808 -1.82,4.622 7.19,18.098 43.46,57.86 23.32,27.57 42.88,51.5 60.21,73.262 16.79,22.25 30.7,42.929 44.36,62.507 6.74,9.821 13.37,19.469 20.01,29.161 6.21,9.992 12.44,20.019 18.81,30.281 12.95,20.469 26.47,41.839 41.61,65.779 13.56,23.62 7.62,16.52 -16.62,-13.47 -19.94,-23.82 -44.14,-53.481 -61.66,-75.551 C 4039.84,867.07 3958.15,787.609 3871.15,711.602 3750.34,606.91 3618.76,515.539 3478.74,438.73 3338.6,362.09 3189.54,301.191 3034.64,255.551 2877.97,209.512 2714.82,181.449 2550.4,171.852 c -164.47,-9.5 -330.04,0.179 -491.84,26.668 -176.25,29.05 -351.21,80.472 -515.14,152.609 -120.87,52.121 -239.19,117.57 -348.51,194.703 140.4,-95.332 290.06,-170.051 447.31,-230.492 286.3,-109.34 591.69,-154.059 893.75,-136.86 311.78,16.899 617.36,103.891 889.32,248.7 192.4,101.441 368.83,233.98 521.1,387.199 98.41,99.621 185.76,207.931 267.87,328.341 31.8,48.42 49.09,76.53 61.01,97.59 10.98,21.63 16.76,36.17 24.66,57.95 -49.38,-89.28 -105.06,-171.64 -164.98,-251.36 -14.75,-18.87 -29.61,-37.89 -44.36,-56.771 -15.76,-18.047 -31.41,-35.981 -46.72,-53.508 -7.74,-8.68 -15.39,-17.262 -22.92,-25.723 -7.99,-8.007 -15.87,-15.898 -23.59,-23.636 -15.5,-15.391 -30.51,-29.992 -44.81,-43.5 4.28,7.847 18.42,22.679 30.95,36.058 34.76,35.5 65.79,74.321 98.2,111.86 30.02,39.5 61.78,77.67 89.26,119 57.79,80.6 108.2,166.28 153.72,254.28 73.26,142.97 132.6,296.52 173.14,450.98 7.03,28.16 12.11,52.49 16.78,73.41 4.59,20.95 8.37,38.61 10.1,54.07 4.18,30.78 5.86,51.63 5.98,69.1 0.16,10.2 0.06,19.51 2.15,45.43 4.41,48.68 7.01,84.8 6.25,120.52 0.06,35.63 0.67,70.49 -1.02,116.67 -1.3,70.74 -7.55,69.58 -13.31,41.44 -4.9,-22.56 -4.29,-94.31 -10.48,-147.18 -1.06,-13.47 -2.17,-27.73 -3.26,-41.63 -11.45,-106.17 -30.07,-211.32 -56.2,-314.63 -27.65,-102.91 -62.48,-203.72 -104.32,-301.64 -39.59,-91.39 -86.95,-178.58 -138.35,-263.27 -52.69,-83.99 -111.12,-164.25 -173.64,-242.28 -87.55,-106.841 -183.64,-199.591 -288.79,-284.36 86.08,73.992 169.05,154.41 245.62,240.98 17.97,21.28 36.82,41.2 52.98,62.97 16.48,21.49 32.79,42.79 49.1,64.07 30.47,44.13 61.51,87.7 90.46,134.96 8.34,13.01 15.16,23.98 20.67,33.34 2.8,5.31 5.18,10 7.32,14.35 75.9,118.59 126.89,225.12 148.15,304.36 85.99,320.54 -195.45,469.08 -336.17,437.81 -140.72,-31.28 -78.18,-289.27 62.54,-218.91 140.72,70.37 101.63,-179.81 101.63,-179.81 C 4065.59,1165.14 3182.12,574.809 2947.18,595.73 c 141.63,193.668 227.5,445.88 227.5,721.95 0,421.94 -200.18,788.52 -494.36,974.64 53.99,56.65 96.96,123.74 126.13,197.77 24.18,3.59 49.08,6.25 74.44,7.02 17.06,-0.52 34.4,0.82 51.13,-1.45 16.82,-1.52 33.53,-2.63 49.24,-6.33 15.91,-2.83 31.29,-5.79 45.28,-10.78 14.13,-4.49 27.92,-7.89 39.5,-13.83 11.92,-5.29 22.85,-10.13 32.53,-14.42 9.07,-5.5 16.98,-10.29 23.49,-14.24 13.09,-7.94 20.57,-12.48 20.57,-12.48 0,0 -7.08,5.13 -19.48,14.11 -6.23,4.51 -13.8,9.99 -22.48,16.28 -9.42,5.13 -20.04,10.93 -31.63,17.26 -11.36,7.01 -24.98,11.6 -39.06,17.37 -13.97,6.29 -29.41,10.62 -45.54,14.87 -15.95,5.13 -32.96,7.71 -50.26,10.71 -17.24,3.75 -35.09,3.88 -52.87,5.84 -21.6,1.13 -43.07,0.9 -64.22,-0.01 4.1,12.27 7.74,24.71 11.07,37.31 5.73,1.22 11.02,2.69 16.96,3.74 31.5,6.18 65.61,9.81 99.88,10.84 17.06,-0.51 34.4,0.83 51.13,-1.44 16.82,-1.53 33.52,-2.64 49.24,-6.34 15.91,-2.82 31.29,-5.79 45.28,-10.78 14.13,-4.49 27.92,-7.88 39.5,-13.82 11.92,-5.29 22.85,-10.13 32.53,-14.43 9.07,-5.5 16.98,-10.29 23.49,-14.24 13.09,-7.94 20.57,-12.47 20.57,-12.47 0,0 -7.08,5.13 -19.48,14.11 -6.23,4.51 -13.8,9.98 -22.48,16.27 -9.41,5.14 -20.04,10.94 -31.63,17.26 -11.36,7.02 -24.97,11.6 -39.06,17.38 -13.97,6.28 -29.42,10.62 -45.54,14.87 -15.95,5.13 -32.96,7.7 -50.26,10.7 -17.24,3.76 -35.09,3.88 -52.87,5.85 -35.62,1.86 -71.48,0.98 -104.79,-2.75 -1.37,-0.13 -2.56,-0.39 -3.92,-0.53 3.49,17.24 5.99,34.81 7.97,52.55 3.81,0.76 7.23,1.76 11.13,2.45 31.49,6.18 65.6,9.81 99.88,10.84 17.06,-0.51 34.39,0.83 51.13,-1.44 16.82,-1.53 33.52,-2.64 49.23,-6.34 15.91,-2.82 31.29,-5.79 45.28,-10.78 14.13,-4.49 27.92,-7.88 39.51,-13.82 11.92,-5.29 22.84,-10.13 32.52,-14.43 9.07,-5.5 16.98,-10.29 23.49,-14.24 13.09,-7.94 20.58,-12.47 20.58,-12.47 0,0 -7.09,5.13 -19.48,14.11 -6.23,4.51 -13.8,9.99 -22.48,16.27 -9.42,5.14 -20.04,10.94 -31.64,17.26 -11.35,7.02 -24.97,11.6 -39.06,17.38 -13.97,6.28 -29.41,10.62 -45.53,14.87 -15.95,5.13 -32.97,7.7 -50.26,10.7 -17.25,3.76 -35.09,3.88 -52.87,5.85 -35.63,1.86 -71.48,0.98 -104.79,-2.75 -1.49,-0.14 -2.78,-0.42 -4.26,-0.58 0.68,11.68 1.73,23.26 1.73,35.11 0,64.14 -10.05,125.91 -28.43,183.97 20.11,6.39 36.54,22.17 47.2,51.1 74.79,203.01 -32.06,566.3 -32.06,566.3 -81.41,37.01 -239.67,-141.26 -329.29,-254.35 -80.57,39.33 -170.77,62.02 -266.46,62.02 -95.7,0 -185.9,-22.69 -266.47,-62.02 -89.62,113.09 -247.88,291.36 -329.29,254.35 0,0 -106.85,-363.29 -32.06,-566.3 10.66,-28.93 27.09,-44.71 47.2,-51.1 -18.38,-58.06 -28.43,-119.83 -28.43,-183.97 0,-8.22 0.87,-16.21 1.19,-24.35 -1.28,0.13 -2.41,0.38 -3.71,0.5 -33.32,3.74 -69.18,4.61 -104.79,2.75 -17.79,-1.96 -35.63,-2.09 -52.88,-5.84 -17.29,-3 -34.31,-5.57 -50.26,-10.7 -16.12,-4.26 -31.57,-8.59 -45.53,-14.87 -14.09,-5.78 -27.71,-10.37 -39.06,-17.38 -11.59,-6.33 -22.22,-12.13 -31.64,-17.26 -8.68,-6.29 -16.25,-11.77 -22.48,-16.28 -12.39,-8.98 -19.47,-14.11 -19.47,-14.11 0,0 7.48,4.54 20.57,12.48 6.51,3.95 14.42,8.74 23.49,14.23 9.68,4.3 20.61,9.14 32.52,14.43 11.59,5.94 25.38,9.34 39.51,13.83 13.99,4.99 29.37,7.95 45.28,10.78 15.71,3.7 32.41,4.81 49.23,6.33 16.74,2.27 34.07,0.93 51.14,1.45 34.27,-1.03 68.38,-4.66 99.87,-10.84 3.44,-0.61 6.45,-1.5 9.82,-2.17 1.67,-17.79 4.32,-35.28 7.49,-52.59 -0.74,0.07 -1.39,0.21 -2.13,0.28 -33.32,3.74 -69.17,4.61 -104.79,2.75 -17.78,-1.96 -35.63,-2.09 -52.87,-5.84 -17.3,-3 -34.31,-5.58 -50.26,-10.71 -16.12,-4.25 -31.57,-8.58 -45.53,-14.86 -14.09,-5.78 -27.71,-10.37 -39.07,-17.38 -11.59,-6.33 -22.22,-12.13 -31.63,-17.26 -8.68,-6.29 -16.25,-11.77 -22.48,-16.28 -12.4,-8.98 -19.48,-14.11 -19.48,-14.11 0,0 7.48,4.54 20.57,12.48 6.51,3.95 14.42,8.74 23.49,14.23 9.68,4.3 20.61,9.15 32.53,14.43 11.58,5.94 25.37,9.34 39.5,13.83 13.99,4.99 29.37,7.95 45.28,10.78 15.71,3.7 32.42,4.81 49.24,6.33 16.73,2.27 34.07,0.93 51.13,1.45 34.27,-1.04 68.39,-4.66 99.88,-10.84 4.95,-0.88 9.33,-2.13 14.13,-3.12 3.09,-12.67 6.15,-25.33 10.01,-37.68 -19.89,0.74 -40.08,0.81 -60.33,-0.24 -17.79,-1.97 -35.63,-2.09 -52.87,-5.85 -17.3,-2.99 -34.31,-5.57 -50.26,-10.7 -16.12,-4.25 -31.57,-8.59 -45.53,-14.87 -14.1,-5.77 -27.71,-10.36 -39.07,-17.38 -11.59,-6.33 -22.21,-12.12 -31.63,-17.26 -8.68,-6.28 -16.25,-11.76 -22.48,-16.27 -12.4,-8.98 -19.48,-14.12 -19.48,-14.12 0,0 7.48,4.54 20.57,12.48 6.52,3.95 14.42,8.74 23.49,14.24 9.68,4.29 20.61,9.14 32.53,14.43 11.58,5.93 25.37,9.33 39.5,13.82 13.99,4.99 29.38,7.95 45.28,10.78 15.71,3.7 32.42,4.81 49.24,6.34 16.73,2.27 34.07,0.93 51.13,1.44 23.95,-0.72 47.47,-3.17 70.43,-6.41 29.14,-78.47 73.45,-149.57 130.14,-209.06 -294.18,-186.12 -494.37,-552.7 -494.37,-974.64 0,-312.75 110.14,-594.942 286.85,-795.961 -305.88,140.57 -576.33,359.523 -775.451,630.751 -130.371,178.33 -234.328,377.63 -300.976,588.67 -49.301,153.18 -77.645,312.66 -88.789,473.17 -4.012,40.07 -3.204,80.46 -4.61,120.7 -0.906,40.27 1.809,80.52 2.34,120.79 3.395,40.09 5.441,80.33 10.152,120.26 5.727,39.79 9.02,79.97 17.239,119.35 15.64,97.3 41.254,192.67 71.683,285.74 29.887,93.36 69.629,182.86 113.414,268.95 44.414,88.19 97.653,172.32 155.153,253.34 57.254,81.3 121.8,157.68 191.117,229.09 11.629,12.11 23.228,24.19 34.768,36.2 12.04,11.51 24.02,22.97 35.91,34.32 11.81,11.45 23.53,22.8 35.13,34.03 12.05,10.74 23.97,21.36 35.73,31.85 32.19,30.23 64.92,55.06 100.42,83.09 68.28,50.08 138.25,98.18 212.31,139.32 73.06,42.9 149.86,78.95 227.67,112.18 39.5,15.18 78.41,31.97 118.85,44.55 20.11,6.59 39.96,13.98 60.23,20.03 l 61.08,17.32 c 20.23,6.24 40.85,11.04 61.52,15.62 l 61.85,14.35 62.53,11.15 c 20.81,3.91 41.65,7.65 62.73,9.86 21.17,2.68 42.16,6.02 63.25,9.11 l 3.59,1.85 -2.79,-1.7 c 15.22,1.88 30.69,2.02 46.04,3.14 26.92,1.59 53.73,4.91 80.74,5.22 l 80.97,1.91 c 53.94,-1.34 108.03,-1.4 161.7,-6.79 107.46,-8.48 214.39,-24.39 318.81,-50.66 21.68,-4.46 42.92,-10.67 64.18,-16.78 21.23,-6.2 42.7,-11.62 63.78,-18.32 41.78,-14.54 84.31,-27.03 125.15,-44.16 83,-30.81 162.68,-69.79 240.67,-111.31 127.01,-69.66 246.88,-155.92 355.79,-248.29 23.79,-18.93 45.41,-40.14 67.69,-61.05 22.68,-20.52 43.77,-43.05 65.3,-66.08 32.1,-32.33 63.62,-73.94 93.31,-103.05 13.88,-14.53 26.87,-31.32 39.79,-48.6 6.44,-8.65 12.94,-17.38 19.43,-26.11 6.1,-9.02 12.3,-17.96 18.73,-26.62 81.66,-108.12 153.68,-228.04 212.08,-357.75 16.98,-35.12 28.15,-62.74 40.93,-90.29 13.18,-27.42 23.89,-56.34 36.91,-95.22 1.51,-4.49 7.4,-16.57 6.86,-13.29 -2.96,17.98 1.3,9.25 8.02,-8.78 6.35,-18.13 13.6,-45.99 19.52,-65.25 3.54,-12.09 7.21,-24.61 10.89,-37.17 3.02,-12.74 6.06,-25.51 9.01,-37.93 5.86,-24.83 12.65,-47.92 18.09,-66.43 -49.21,259.32 -147.53,501.55 -285.69,717.77 -103.26,161.58 -231.26,310.34 -378.98,437.73 -73.96,63.47 -151.67,123.3 -234.61,175.19 -82.45,52.49 -168.14,100.38 -257.58,139.88 -153.06,70.51 -316.2,119.62 -482.9,149.08 -41.48,8.66 -83.77,12.39 -125.72,18.36 -20.96,3.24 -42.23,3.71 -63.32,5.74 -21.15,1.48 -42.25,3.79 -63.44,4.66 -84.78,2.93 -169.88,3.9 -254.4,-3.28 -128.13,-8.95 -255.41,-31.61 -367.16,-55.7 -28.84,-6.98 -60.29,-16.36 -90.44,-24.71 -19.88,-6.55 -40.52,-13.34 -62.48,-20.58 -11.02,-3.52 -22.36,-7.14 -34.12,-10.9 -11.6,-4.12 -23.61,-8.39 -36.12,-12.83 35.47,15.75 68.39,26.37 99.36,37.09 30.79,11.32 60.8,19.11 91.18,27.78 106.62,29.38 220.36,48.51 326.56,64.74 13.57,3.05 44.16,4.14 66.89,5.91 57.68,5.68 115.75,5.48 165.6,6.94 15.07,0.92 0.47,3.13 -11.34,3.54 -11.79,0.7 -20.79,1.32 5.69,2.94 34.24,0.56 42.36,0.5 17.85,3.14 -32.28,3.28 -84.63,3.14 -85.32,6.68 -0.93,4.05 -26.91,8.83 -58.6,9.47 -31.68,1.02 -69.33,2.16 -93.43,3.47 -16.47,0.55 -37.82,-0.28 -91.75,-7 -21.1,-3.35 -43.31,-6.87 -65.21,-10.34 -21.85,-3.52 -43.68,-5.3 -63.28,-8.65 27.36,6.82 54.12,10.23 79.67,14.99 12.82,2.16 25.41,4.29 37.83,6.39 12.47,1.73 24.84,2.89 37.04,4.33 24.39,2.79 48.26,5.51 71.97,8.22 23.8,1.72 47.44,3.42 71.3,5.14 163.62,11.91 327.52,3.86 488.38,-23.35 144.13,-23.68 287.09,-62.07 421.61,-115.48 142.08,-56.54 268.27,-119 385.61,-192.22 124.27,-77.46 243.35,-172.06 345.22,-272.83 201.29,-198.67 361.58,-437.34 470.15,-697.3 48.67,-115.57 87.17,-232.54 114.22,-352.77 1.98,-8.11 3.93,-16.15 5.88,-24.14 1.53,-8.07 3.06,-16.09 4.57,-24.06 3,-15.95 5.96,-31.71 8.9,-47.34 6.5,-31.16 9.62,-62.35 13.13,-93.46 1.84,-18.65 4.57,-36.54 5.89,-54.14 1.39,-17.59 2.74,-34.73 4.08,-51.63 1.52,-16.87 3.02,-33.49 4.52,-50.06 0.82,-16.6 1.64,-33.14 2.47,-49.81 1.45,-27.06 2.95,-58.3 4.98,-58.07 2.51,0.27 4.91,21.48 3.95,60.54" /><path
         id="path16"
         style="fill:#ffffff;fill-opacity:1;fill-rule:nonzero;stroke:none"
         d="m 74.2852,2915.49 c 5.9179,26.28 12.1523,52.48 19.9726,78.27 l 22.2192,77.69 25.769,76.58 c 12.317,38.65 28.098,76.18 42.762,113.87 14.051,37.97 31.453,74.25 47.058,110.66 53.922,120.13 119.004,237.21 194.219,349.13 74.641,110.88 154.742,211.69 246.793,317.55 -48.223,-48.84 -85.32,-94.36 -120.652,-134.75 -16.606,-21.08 -32.438,-41.19 -47.883,-60.8 -7.703,-9.82 -15.313,-19.52 -22.871,-29.16 -7.16,-9.93 -14.274,-19.81 -21.387,-29.68 l -49.41,-69.54 -46.141,-71.76 c -15.796,-23.66 -29.586,-48.55 -43.828,-73.16 -13.863,-24.83 -29.097,-48.9 -41.554,-74.48 -53.993,-100.18 -98.59,-205.08 -138.383,-311.53 -37.973,-107.19 -69.0276,-216.71 -92.4026,-327.87 -6.0273,-27.73 -10.1992,-55.83 -15.3125,-83.74 -5.0742,-27.93 -9.8203,-55.89 -12.8203,-84.1 L 10.1133,2604.25 3.94531,2519.5 C 0.953125,2485.23 0.609375,2454.4 0.367188,2427.83 0.21875,2401.29 0.0976563,2379 0,2361.67 c 1.10547,-34.58 3.17969,-49.11 4.08203,-37.74 0.94531,9.24 1.21875,21 1.91406,34.69 0.95313,13.68 1.76172,29.27 2.48829,46.16 1.70702,33.78 1.66792,72.79 5.43362,111.91 l 6.2031,80.49 c 2.8945,26.75 6.6094,53.43 9.9375,80.15 5.6953,53.57 17.25,106.3 26.3047,159.37 5.4765,26.36 11.9414,52.53 17.9219,78.79" /></g></g></svg>